<mxfile host="app.diagrams.net" modified="2024-02-08T08:50:42.476Z" agent="Mozilla/5.0 (Windows NT 10.0; Win64; x64) AppleWebKit/537.36 (KHTML, like Gecko) Chrome/121.0.0.0 Safari/537.36 Edg/121.0.0.0" etag="9OO4IuvoEI7O-CAdYVzQ" version="23.1.2" type="device">
  <diagram name="Pagina-1" id="RIe0jPJiFgApkDn7sLgF">
    <mxGraphModel dx="1002" dy="569" grid="1" gridSize="10" guides="1" tooltips="1" connect="1" arrows="1" fold="1" page="1" pageScale="1" pageWidth="827" pageHeight="1169" math="0" shadow="0">
      <root>
        <mxCell id="0" />
        <mxCell id="1" parent="0" />
        <mxCell id="_WUqo1U4KwquYLu2NDVj-11" style="edgeStyle=orthogonalEdgeStyle;rounded=0;orthogonalLoop=1;jettySize=auto;html=1;" edge="1" parent="1" source="_WUqo1U4KwquYLu2NDVj-2" target="_WUqo1U4KwquYLu2NDVj-6">
          <mxGeometry relative="1" as="geometry" />
        </mxCell>
        <mxCell id="_WUqo1U4KwquYLu2NDVj-2" value="start" style="rounded=1;whiteSpace=wrap;html=1;fillColor=#e1d5e7;strokeColor=#9673a6;" vertex="1" parent="1">
          <mxGeometry x="340" y="20" width="120" height="40" as="geometry" />
        </mxCell>
        <mxCell id="_WUqo1U4KwquYLu2NDVj-3" value="einde" style="rounded=1;whiteSpace=wrap;html=1;fillColor=#e1d5e7;strokeColor=#9673a6;" vertex="1" parent="1">
          <mxGeometry x="340" y="300" width="120" height="40" as="geometry" />
        </mxCell>
        <mxCell id="_WUqo1U4KwquYLu2NDVj-15" style="edgeStyle=orthogonalEdgeStyle;rounded=0;orthogonalLoop=1;jettySize=auto;html=1;entryX=0.5;entryY=0;entryDx=0;entryDy=0;" edge="1" parent="1" source="_WUqo1U4KwquYLu2NDVj-6" target="_WUqo1U4KwquYLu2NDVj-13">
          <mxGeometry relative="1" as="geometry" />
        </mxCell>
        <mxCell id="_WUqo1U4KwquYLu2NDVj-6" value="haal kaarten uit de doos" style="rounded=0;whiteSpace=wrap;html=1;fillColor=#f8cecc;strokeColor=#b85450;" vertex="1" parent="1">
          <mxGeometry x="340" y="90" width="120" height="70" as="geometry" />
        </mxCell>
        <mxCell id="_WUqo1U4KwquYLu2NDVj-14" style="edgeStyle=orthogonalEdgeStyle;rounded=0;orthogonalLoop=1;jettySize=auto;html=1;" edge="1" parent="1" source="_WUqo1U4KwquYLu2NDVj-13">
          <mxGeometry relative="1" as="geometry">
            <mxPoint x="400" y="200" as="targetPoint" />
            <Array as="points">
              <mxPoint x="400" y="210" />
              <mxPoint x="400" y="210" />
            </Array>
          </mxGeometry>
        </mxCell>
        <mxCell id="_WUqo1U4KwquYLu2NDVj-16" style="edgeStyle=orthogonalEdgeStyle;rounded=0;orthogonalLoop=1;jettySize=auto;html=1;entryX=0.5;entryY=0;entryDx=0;entryDy=0;" edge="1" parent="1" source="_WUqo1U4KwquYLu2NDVj-13" target="_WUqo1U4KwquYLu2NDVj-3">
          <mxGeometry relative="1" as="geometry" />
        </mxCell>
        <mxCell id="_WUqo1U4KwquYLu2NDVj-13" value="kaarten schudden" style="rounded=0;whiteSpace=wrap;html=1;fillColor=#ffe6cc;strokeColor=#d79b00;" vertex="1" parent="1">
          <mxGeometry x="340" y="200" width="120" height="60" as="geometry" />
        </mxCell>
      </root>
    </mxGraphModel>
  </diagram>
</mxfile>
